#!OML:ASF X:\für Bonn\!DataBase\2005_08_11_Bastian_Final\c3d\Bastian.ASF
:FULLY-SPECIFIED
:DEGREES
337
root 0.432741 16.6783 -15.8113 528.143 -232.22 -176.293
lowerback 21.6819 1.44745 9.81604
upperback 11.8082 4.35011 3.95901
thorax 1.29006 2.80324 -2.11267
lowerneck -10.5718 -10.645 4.79144
upperneck 2.17303 -14.8329 1.06368
head 2.19965 -7.29272 -1.16803
rclavicle -4.6118e-014 -4.92986e-014
rhumerus 22.1223 43.9686 -61.0484
rradius 48.8802
rwrist -15.8759
rhand -21.0918 2.94294
rfingers 7.12502
rthumb 5.28573 -26.9711
lclavicle -4.6118e-014 -4.92986e-014
lhumerus -132.359 -23.7676 -147.583
lradius 21.3552
lwrist -187.683
lhand -12.2266 -19.8341
lfingers 7.12502
lthumb 13.8386 9.68553
rfemur -2.00726 6.65603 19.7179
rtibia 50.4265
rfoot -17.7306 -2.23995
rtoes 26.4997
lfemur 2.7863 -0.267368 -12.74
ltibia 39.4178
lfoot -28.7282 -4.26714
ltoes -36.5965
338
root 0.462432 16.6891 -15.8015 527.776 -231.902 -176.66
lowerback 21.0365 1.72693 9.54216
upperback 11.6778 4.56462 3.73478
thorax 1.48013 2.89931 -2.20892
lowerneck -10.003 -10.6398 4.70153
upperneck 2.22283 -14.7978 1.33978
head 2.144 -7.26821 -1.03235
rclavicle -2.22639e-014 -3.97569e-014
rhumerus 21.6088 44.2118 -61.9551
rradius 50.1698
rwrist -15.2249
rhand -21.0404 3.01551
rfingers 7.12502
rthumb 5.33536 -26.8973
lclavicle -2.22639e-014 -3.97569e-014
lhumerus -130.762 -24.7383 -149.5
lradius 22.4627
lwrist -188.756
lhand -13.094 -19.5341
lfingers 7.12502
lthumb 13.0025 10.0407
rfemur -1.66337 6.56681 19.8784
rtibia 50.0649
rfoot -17.828 -2.0725
rtoes 26.6278
lfemur 3.17994 -0.374524 -12.5956
ltibia 39.1563
lfoot -28.4031 -4.21651
ltoes -36.4284
339
root 0.492334 16.7008 -15.7927 527.503 -231.582 -176.989
lowerback 20.3544 1.99676 9.25492
upperback 11.5295 4.76675 3.52006
thorax 1.66788 2.98696 -2.27969
lowerneck -9.50909 -10.614 4.58468
upperneck 2.28271 -14.7365 1.60265
head 2.10677 -7.23107 -0.902492
rclavicle 3.73715e-014 -1.43125e-014
rhumerus 20.9894 44.5285 -62.8649
rradius 51.5235
rwrist -14.7783
rhand -21.037 3.19717
rfingers 7.12502
rthumb 5.33858 -26.7156
lclavicle 3.73715e-014 -1.43125e-014
lhumerus -128.869 -25.8894 -151.966
lradius 23.4823
lwrist -190.374
lhand -13.9786 -18.9729
lfingers 7.12502
lthumb 12.1497 10.6543
rfemur -1.37908 6.59511 20.0482
rtibia 49.7022
rfoot -17.9426 -1.99325
rtoes 26.7883
lfemur 3.50161 -0.455311 -12.4699
ltibia 38.8817
lfoot -27.9973 -4.21604
ltoes -35.9572
340
root 0.522031 16.7135 -15.7847 527.27 -231.22 -177.31
lowerback 19.6469 2.25763 8.99101
upperback 11.4068 4.96426 3.30402
thorax 1.90178 3.07656 -2.35562
lowerneck -9.25307 -10.5797 4.47979
upperneck 2.4484 -14.6814 1.83077
head 2.14358 -7.19284 -0.806994
rclavicle -3.53837e-014 2.22639e-014
rhumerus 20.3374 44.8153 -63.7834
rradius 52.9198
rwrist -14.4706
rhand -21.0054 3.44902
rfingers 7.12502
rthumb 5.36917 -26.463
lclavicle -3.53837e-014 2.22639e-014
lhumerus -126.703 -27.1526 -154.914
lradius 24.3598
lwrist -192.507
lhand -14.7128 -18.134
lfingers 7.12502
lthumb 11.4417 11.5338
rfemur -1.1227 6.77064 20.2588
rtibia 49.349
rfoot -18.09 -1.99727
rtoes 26.9745
lfemur 3.80287 -0.530204 -12.3571
ltibia 38.5989
lfoot -27.6122 -4.1183
ltoes -35.5974
341
root 0.549572 16.7258 -15.7782 527.066 -230.843 -177.653
lowerback 18.9304 2.50711 8.74362
upperback 11.2866 5.15591 3.1161
thorax 2.14424 3.16343 -2.40436
lowerneck -9.10113 -10.5341 4.32451
upperneck 2.6086 -14.6122 2.05361
head 2.20076 -7.14771 -0.712192
rclavicle 1.11717e-013 -2.06736e-014
rhumerus 19.6522 45.1236 -64.6887
rradius 54.3213
rwrist -14.2502
rhand -20.9987 3.76116
rfingers 7.12502
rthumb 5.3756 -26.1507
lclavicle 1.11717e-013 -2.06736e-014
lhumerus -124.312 -28.3935 -158.13
lradius 25.1484
lwrist -194.965
lhand -15.3728 -17.1618
lfingers 7.12502
lthumb 10.8052 12.5402
rfemur -0.925399 6.99857 20.5001
rtibia 49.008
rfoot -18.2519 -2.01165
rtoes 27.2023
lfemur 4.0521 -0.635517 -12.2291
ltibia 38.3147
lfoot -27.2626 -4.0479
ltoes -35.4275
342
root 0.577382 16.7427 -15.7725 526.883 -230.46 -178.035
lowerback 18.178 2.73959 8.56444
upperback 11.1748 5.33762 2.91591
thorax 2.42532 3.25093 -2.49375
lowerneck -9.11037 -10.4711 4.24876
upperneck 2.82814 -14.5384 2.23683
head 2.29771 -7.09698 -0.653981
rclavicle -8.34896e-015 3.18055e-015
rhumerus 18.9032 45.3178 -65.7325
rradius 55.6615
rwrist -14.057
rhand -20.9623 4.26114
rfingers 7.12502
rthumb 5.4107 -25.6498
lclavicle -8.34896e-015 3.18055e-015
lhumerus -121.81 -29.5522 -161.504
lradius 25.7924
lwrist -197.7
lhand -15.817 -16.0198
lfingers 7.12502
lthumb 10.3767 13.7042
rfemur -0.785454 7.29605 20.7954
rtibia 48.6905
rfoot -18.422 -2.07747
rtoes 27.4471
lfemur 4.25967 -0.776661 -12.0971
ltibia 38.022
lfoot -27.0025 -3.9031
ltoes -35.594
343
root 0.598656 16.7569 -15.7684 526.748 -230.075 -178.38
lowerback 17.4944 2.96224 8.33133
upperback 11.0655 5.51251 2.73023
thorax 2.66808 3.33058 -2.53856
lowerneck -9.26845 -10.3998 4.19995
upperneck 3.07409 -14.4634 2.35999
head 2.42392 -7.04494 -0.628385
rclavicle -4.77083e-014 -2.8625e-014
rhumerus 18.0919 45.4854 -66.8099
rradius 57.0494
rwrist -13.7688
rhand -20.8672 4.69162
rfingers 7.12502
rthumb 5.50256 -25.2169
lclavicle -4.77083e-014 -2.8625e-014
lhumerus -119.368 -30.5662 -164.657
lradius 26.3231
lwrist -200.387
lhand -15.937 -14.7756
lfingers 7.12502
lthumb 10.2609 14.9542
rfemur -0.698506 7.64937 21.0835
rtibia 48.3887
rfoot -18.5777 -2.15291
rtoes 27.8439
lfemur 4.41794 -0.898821 -11.9649
ltibia 37.7345
lfoot -26.7168 -3.84671
ltoes -35.7843
344
root 0.619873 16.771 -15.7659 526.661 -229.725 -178.676
lowerback 16.8405 3.15339 8.075
upperback 10.9502 5.65229 2.54503
thorax 2.88463 3.3902 -2.56529
lowerneck -9.48161 -10.3078 4.1502
upperneck 3.32818 -14.3636 2.46185
head 2.56219 -6.98016 -0.611523
rclavicle 4.13472e-014 -1.27222e-014
rhumerus 17.1723 45.6765 -67.9313
rradius 58.475
rwrist -13.5132
rhand -20.78 5.09238
rfingers 7.12502
rthumb 5.58674 -24.814
lclavicle 4.13472e-014 -1.27222e-014
lhumerus -116.966 -31.4482 -167.647
lradius 26.7857
lwrist -203.098
lhand -15.7277 -13.5846
lfingers 7.12502
lthumb 10.4629 16.1351
rfemur -0.625132 8.01137 21.3443
rtibia 48.1093
rfoot -18.744 -2.2591
rtoes 28.1249
lfemur 4.57212 -1.08695 -11.8856
ltibia 37.4464
lfoot -26.4434 -3.86416
ltoes -35.67
345
root 0.640105 16.7845 -15.7648 526.568 -229.389 -179.005
lowerback 16.2128 3.32407 7.86823
upperback 10.8237 5.78007 2.35371
thorax 3.08273 3.44559 -2.62401
lowerneck -9.77029 -10.213 4.15051
upperneck 3.61604 -14.2709 2.54559
head 2.7213 -6.91634 -0.613652
rclavicle 2.50469e-014 -9.54166e-015
rhumerus 16.1348 45.8642 -69.0967
rradius 59.9568
rwrist -13.2602
rhand -20.6681 5.44559
rfingers 7.12502
rthumb 5.69478 -24.4579
lclavicle 2.50469e-014 -9.54166e-015
lhumerus -114.664 -32.2382 -170.457
lradius 27.1543
lwrist -205.896
lhand -15.2457 -12.4252
lfingers 7.12502
lthumb 10.9278 17.2704
rfemur -0.569001 8.41841 21.6421
rtibia 47.8333
rfoot -18.8904 -2.42303
rtoes 28.4189
lfemur 4.69167 -1.29633 -11.788
ltibia 37.1767
lfoot -26.1897 -3.91236
ltoes -35.6477
346
root 0.660494 16.7958 -15.7662 526.451 -229.076 -179.327
lowerback 15.6316 3.46042 7.68906
upperback 10.7144 5.87563 2.17156
thorax 3.2763 3.48702 -2.68504
lowerneck -10.0592 -10.1123 4.1381
upperneck 3.87304 -14.1674 2.61532
head 2.87084 -6.84879 -0.615772
rclavicle 2.90226e-014 1.27222e-014
rhumerus 14.9829 46.0625 -70.2927
rradius 61.4391
rwrist -12.9205
rhand -20.5501 5.77596
rfingers 7.12502
rthumb 5.80875 -24.1244
lclavicle 2.90226e-014 1.27222e-014
lhumerus -112.715 -32.9454 -172.769
lradius 27.6265
lwrist -208.591
lhand -14.507 -11.3676
lfingers 7.12502
lthumb 11.6402 18.2891
rfemur -0.486858 8.78299 21.9154
rtibia 47.5637
rfoot -19.0337 -2.55297
rtoes 28.7262
lfemur 4.83404 -1.5736 -11.7203
ltibia 36.9157
lfoot -25.9714 -3.93777
ltoes -35.5735
